<?xml version="1.0" encoding="UTF-8"?>
<svg id="_图层_1" data-name="图层_1" xmlns="http://www.w3.org/2000/svg" xmlns:xlink="http://www.w3.org/1999/xlink" version="1.1" viewBox="0 0 113.65 26">
  <!-- Generator: Adobe Illustrator 29.8.1, SVG Export Plug-In . SVG Version: 2.1.1 Build 2)  -->
  <defs>
    <style>
      .st0 {
        fill: url(#_未命名的渐变_2);
      }

      .st1 {
        fill: url(#_未命名的渐变);
      }

      .st2 {
        font-family: AcademyEngravedLetPlain, 'Academy Engraved LET';
        font-size: 21.25px;
      }
    </style>
    <linearGradient id="_未命名的渐变_2" data-name="未命名的渐变 2" x1="29.38" y1="14.21" x2="115.62" y2="14.21" gradientUnits="userSpaceOnUse">
      <stop offset="0" stop-color="#fff"/>
      <stop offset="1" stop-color="#231815"/>
    </linearGradient>
    <linearGradient id="_未命名的渐变" data-name="未命名的渐变" x1="5.45" y1="7.35" x2="16.66" y2="18.56" gradientUnits="userSpaceOnUse">
      <stop offset="0" stop-color="#024eff"/>
      <stop offset="1" stop-color="#01aee6"/>
    </linearGradient>
  </defs>
  <g>
    <g>
      <path class="st0" d="M44.57,6.22l1.41,3.7h-.41c-.39-.66-.8-1.22-1.23-1.69-.43-.47-.88-.85-1.35-1.15-.47-.29-.97-.51-1.5-.65s-1.13-.21-1.79-.21c-.95,0-1.83.16-2.65.47s-1.53.75-2.13,1.32-1.07,1.24-1.4,2.01c-.33.77-.5,1.61-.5,2.5,0,1.35.31,2.58.93,3.69s1.47,1.98,2.55,2.62,2.28.95,3.59.95c.91,0,1.76-.15,2.55-.46.79-.3,1.49-.74,2.11-1.32s1.16-1.3,1.61-2.17h.49c-.67,1.54-1.69,2.7-3.05,3.49s-3.01,1.19-4.97,1.19c-2.29,0-4.18-.53-5.68-1.6-.64-.46-1.18-.99-1.62-1.58-.44-.59-.77-1.23-1.01-1.94-.23-.7-.35-1.42-.35-2.16,0-1.38.4-2.64,1.21-3.78s1.92-2.04,3.33-2.69c1.42-.65,2.98-.98,4.7-.98.72,0,1.67.09,2.85.27.82.13,1.41.2,1.78.2.16,0,.33-.01.52-.04ZM38.37,20.17c-1.02-.24-1.94-.59-2.77-1.04-.83-.45-1.52-.99-2.07-1.61-.55-.62-.97-1.33-1.26-2.12-.29-.79-.43-1.66-.43-2.59,0-.69.07-1.31.22-1.87.14-.55.38-1.08.7-1.58.32-.5.74-.97,1.23-1.4.5-.43,1.1-.85,1.82-1.27-.84.33-1.59.71-2.23,1.16-.64.45-1.18.95-1.63,1.5-.44.56-.77,1.17-1,1.83s-.34,1.35-.34,2.07c0,.77.13,1.52.39,2.22.26.71.62,1.35,1.1,1.94.47.59,1.05,1.09,1.72,1.49.67.4,1.37.7,2.09.9s1.54.32,2.45.36Z"/>
      <path class="st0" d="M55.57,6.07v.32c-.96.12-1.66.41-2.08.85-.19.2-.33.45-.4.75s-.11.71-.11,1.25v7.92c0,.52.03.93.1,1.22.07.3.19.54.37.74.36.39,1.05.59,2.06.59h.25c.54,0,1.06-.07,1.58-.21.51-.14,1.04-.37,1.57-.68.53-.31,1.08-.71,1.62-1.19.55-.48,1.11-1.04,1.69-1.69h.37l-1.44,4.31h-13.32v-.32c.87-.12,1.5-.41,1.89-.86.3-.33.46-.99.46-1.98v-7.83c0-.63-.04-1.09-.12-1.37s-.23-.53-.45-.73c-.4-.39-1-.64-1.78-.75v-.32h7.74ZM49.51,19.7h3.52l-.47-.3c-.27-.17-.45-.31-.52-.42-.08-.1-.11-.26-.11-.47,0-.11,0-.19,0-.22,0-.04,0-.08,0-.12v-10.05s0-.08,0-.12,0-.11,0-.22c0-.21.04-.37.13-.48.08-.11.25-.25.51-.4l.69-.44h-3.94l.67.44c.28.17.46.31.53.4.07.1.11.26.11.48,0,.12.01.23.01.34v10.05c0,.11,0,.22-.01.34,0,.21-.04.37-.11.47-.07.1-.25.24-.53.41l-.47.3ZM60.29,19.7l.65-1.93c-.79.81-1.72,1.45-2.81,1.93h2.16Z"/>
      <path class="st0" d="M65.44,15.4v.23c0,.82.14,1.54.42,2.16.28.62.68,1.1,1.2,1.44.52.34,1.13.51,1.82.51.37,0,.74-.05,1.11-.16.37-.11.74-.26,1.11-.46.37-.2.78-.48,1.23-.85l.24.28c-.83.69-1.61,1.19-2.35,1.48-.74.3-1.57.45-2.49.45s-1.81-.18-2.57-.54c-.76-.36-1.35-.87-1.76-1.53-.42-.66-.63-1.4-.63-2.22,0-.87.23-1.66.69-2.38.46-.72,1.09-1.28,1.89-1.69s1.69-.61,2.68-.61c.84,0,1.62.15,2.32.45.7.3,1.25.72,1.64,1.26.42.55.65,1.28.7,2.19h-7.26ZM68.26,20.16c-.57-.06-1.03-.16-1.37-.28-.35-.12-.68-.32-1.01-.58-.49-.39-.87-.9-1.14-1.53-.27-.63-.41-1.32-.41-2.07,0-.52.06-1,.17-1.43s.3-.83.54-1.17c.25-.35.58-.67.99-.99-.92.43-1.62,1-2.11,1.7-.49.71-.73,1.49-.73,2.37,0,.75.2,1.43.59,2.04.39.61.94,1.09,1.64,1.44.7.35,1.48.52,2.33.52.19,0,.36,0,.51,0ZM65.44,15.03h4.8c0-.93-.12-1.6-.33-2.01-.19-.37-.45-.66-.79-.87-.35-.2-.73-.31-1.16-.31-1.54,0-2.38,1.06-2.53,3.19ZM71.7,15.03c-.02-.51-.13-.97-.32-1.39-.19-.42-.46-.77-.8-1.05-.34-.29-.75-.49-1.21-.62.47.32.8.7,1.01,1.13.21.44.31.98.31,1.64,0,.11,0,.21-.01.29h1.04Z"/>
      <path class="st0" d="M83.75,20.45h-.28l-2.94-5.73-2.52,5.73h-.29l-3.35-6.6c-.32-.64-.61-1.08-.87-1.34s-.59-.42-1-.49v-.28h5.62v.28c-.51.02-.87.08-1.07.19-.2.1-.29.29-.29.55,0,.17.05.36.16.59l1.96,4.27,2.58-5.98h.21l3.03,5.91,1.9-4.03c.19-.41.29-.71.29-.89,0-.22-.1-.38-.29-.46s-.54-.14-1.04-.15v-.28h3.15v.28c-.26,0-.48.06-.67.16-.19.1-.37.27-.53.5-.16.23-.35.57-.56,1.01l-3.23,6.77ZM77.89,19.88l.54-1.21-2.43-4.91-.1-.2c-.14-.3-.22-.55-.22-.75,0-.33.2-.57.61-.75h-2.83c.18.12.33.25.48.39.14.15.26.3.37.47s.25.42.42.77l.13.26,3.02,5.93ZM83.62,19.83l.59-1.2-2.9-5.66-.57,1.28,2.88,5.58Z"/>
      <path class="st0" d="M89.27,20.23v-.28c.55-.08.92-.24,1.12-.48.2-.24.3-.65.3-1.23v-4.36c0-.58-.1-.99-.31-1.24-.21-.25-.58-.4-1.11-.47v-.23l3.88-.38v6.68c0,.57.1.98.29,1.22.2.24.57.4,1.11.49v.28h-5.29ZM90.47,19.78h2.41l-.29-.19s-.03-.02-.05-.03l-.16-.1c-.11-.1-.17-.23-.18-.39v-7.07l-1.97.19.47.29s.02.01.05.03l.16.1c.08.05.13.12.16.21.02.09.04.26.04.49v5.44c0,.28-.02.46-.05.53-.03.07-.13.16-.29.28-.02.01-.04.02-.04.03l-.25.19ZM90.36,8.73c0-.35.14-.64.41-.88.27-.24.61-.36,1.02-.36s.75.12,1.02.36c.27.24.41.54.41.88s-.14.65-.41.88c-.27.24-.61.35-1.02.35s-.75-.12-1.02-.35c-.27-.23-.41-.53-.41-.88ZM91.74,7.76c-.28.01-.52.12-.73.31-.21.19-.31.41-.31.66s.1.47.31.66.45.29.72.29c.18,0,.26-.08.26-.24,0-.12.01-.38.01-.76s0-.6-.01-.71c0-.14-.1-.21-.26-.22Z"/>
      <path class="st0" d="M102.08,12.03l.5,2.41h-.33c-.24-.79-.62-1.41-1.14-1.86-.52-.45-1.11-.68-1.79-.68-.4,0-.74.1-1,.31-.27.2-.4.46-.4.75,0,.28.11.5.32.68.21.18.69.44,1.44.79,1.22.57,2.07,1.03,2.55,1.36.76.51,1.14,1.16,1.14,1.97,0,.41-.09.77-.28,1.1-.19.33-.46.61-.82.85s-.79.43-1.29.56c-.5.13-1.04.19-1.63.19-.97,0-2.13-.19-3.49-.57l-.29-3.16h.29c.72,2.15,1.85,3.23,3.37,3.23.54,0,.98-.14,1.33-.42.35-.28.52-.64.52-1.09s-.21-.82-.61-1.1c-.24-.17-.83-.47-1.78-.92-.95-.45-1.6-.8-1.95-1.06-.57-.41-.86-.93-.86-1.56,0-.68.31-1.23.92-1.66.61-.43,1.41-.64,2.38-.64.77,0,1.73.17,2.88.51ZM96.23,19.61l.22.06c.31.1.67.2,1.08.28l.26.05c-.38-.21-.69-.43-.93-.65-.24-.22-.49-.51-.76-.88l.12,1.13ZM100.19,20.06c.72-.08,1.29-.3,1.7-.65s.61-.8.61-1.35-.23-1.02-.7-1.43c-.4-.37-1.18-.81-2.32-1.33-.95-.44-1.58-.8-1.91-1.07-.33-.27-.49-.58-.49-.93,0-.53.35-1.01,1.05-1.42-.59.17-1.04.42-1.35.75s-.48.72-.48,1.15c0,.51.21.93.63,1.26.32.26.97.62,1.94,1.09,1.05.49,1.72.85,2.01,1.08.42.33.64.75.64,1.25,0,.78-.44,1.32-1.32,1.62Z"/>
    </g>
    <text class="st2" transform="translate(29.38 20.23) scale(1.16 1)"><tspan x="0" y="0">C</tspan><tspan x="15.33" y="0">Lewis</tspan></text>
  </g>
  <text/>
  <circle class="st1" cx="11.11" cy="13" r="7.83"/>
</svg>